<?xml version="1.0" encoding="utf-8"?>
<!-- Generator: Adobe Illustrator 26.5.0, SVG Export Plug-In . SVG Version: 6.00 Build 0)  -->
<svg version="1.1" id="Layer_1" xmlns="http://www.w3.org/2000/svg" xmlns:xlink="http://www.w3.org/1999/xlink" x="0px" y="0px"
	 viewBox="0 0 138.02 155.47" style="enable-background:new 0 0 138.02 155.47;" xml:space="preserve">
<style type="text/css">
	.st0{fill:#FFFFFF;stroke:#FFFFFF;stroke-miterlimit:10;}
</style>
<polygon class="st0" points="48.46,109.33 0.5,130.24 0.5,133.85 95.98,154.94 137.52,132.74 137.52,129.13 "/>
<path class="st0" d="M85.63,128.64H69.01V9.2c0-2.2,1.78-3.98,3.98-3.98h8.65c2.2,0,3.98,1.78,3.98,3.98V128.64z"/>
<path class="st0" d="M84.72,50.51h-15.4c-2.12,0-3.83-1.72-3.83-3.83v-14c0-2.12,1.72-3.83,3.83-3.83h15.4
	c2.12,0,3.83,1.72,3.83,3.83v14C88.55,48.79,86.84,50.51,84.72,50.51z"/>
<g>
	<path class="st0" d="M68.16,36.29H37.02c-1.69,0-3.06,1.37-3.06,3.06v0.88c0,1.69,1.37,3.06,3.06,3.06h7.28
		c4.42,4.64,2.69,11.16,2.69,11.16l2.94,0.3l4.59-11.46h13.63c1.69,0,3.06-1.37,3.06-3.06v-0.88
		C71.21,37.66,69.85,36.29,68.16,36.29z"/>
	<g>
		<path class="st0" d="M51.4,37.93H47.2c-0.71,0-1.29-0.58-1.29-1.29v-0.97c0-0.71,0.58-1.29,1.29-1.29h4.21
			c0.71,0,1.29,0.58,1.29,1.29v0.97C52.69,37.35,52.11,37.93,51.4,37.93z"/>
		<path class="st0" d="M51.51,34.38h-3.78c0,0-10.35-25.72-5.12-31.86c2.2-2.58,11.66-2.8,13.58,0
			C60.75,9.16,51.51,34.38,51.51,34.38z"/>
	</g>
</g>
</svg>
