<?xml version="1.0" encoding="utf-8"?>
<!-- Generator: Adobe Illustrator 26.5.0, SVG Export Plug-In . SVG Version: 6.00 Build 0)  -->
<svg version="1.1" id="Layer_1" xmlns="http://www.w3.org/2000/svg" xmlns:xlink="http://www.w3.org/1999/xlink" x="0px" y="0px"
	 viewBox="0 0 186.3 203" style="enable-background:new 0 0 186.3 203;" xml:space="preserve">
<style type="text/css">
	.st0{fill:none;stroke:#FFFFFF;stroke-width:3;stroke-miterlimit:10;}
	.st1{fill:#FFFFFF;stroke:#FFFFFF;stroke-width:3;stroke-miterlimit:10;}
	.st2{fill:none;stroke:#FFFFFF;stroke-width:2;stroke-miterlimit:10;}
</style>
<polygon class="st0" points="134.78,76.11 70.84,76.11 49.52,1.5 156.1,1.5 "/>
<path class="st0" d="M139.14,167.07H72.2c-10,0-17.87-8.55-17.03-18.52L61.43,119c0.65-7.73,7.11-13.67,14.86-13.67h58.76
	c7.76,0,14.22,5.94,14.86,13.67l6.27,29.56C157.01,158.52,149.14,167.07,139.14,167.07z"/>
<polygon class="st0" points="139.07,105.32 74.28,105.32 68.12,88.68 139.07,88.68 "/>
<path class="st1" d="M166.44,134.79c0,0-4.71-22.96-6.21-33.2c-0.29-1.95-1.38-3.59-3.09-3.59H72.55c-1.71,0-3.09,1.61-3.09,3.59
	v0.42c0,1.98,1.38,3.59,3.09,3.59h78.12l7.6,31c0.38,1.55,1.6,2.61,2.99,2.61h2.15C165.41,139.21,166.89,137.05,166.44,134.79z"/>
<polygon class="st1" points="170.05,185.62 41.3,185.62 41.3,101.5 41.3,50.84 57.66,50.84 43.56,1.5 41.3,1.5 18.93,1.5 1.75,1.5 
	16.96,101.5 1.75,201.5 19.72,201.5 41.3,201.5 183.12,201.5 "/>
<rect x="52.81" y="173.4" class="st1" width="100" height="7.19"/>
<g>
	<line class="st2" x1="91.65" y1="127.2" x2="68.12" y2="127.2"/>
	<line class="st2" x1="91.65" y1="145.2" x2="68.12" y2="145.2"/>
	<line class="st2" x1="91.65" y1="136.2" x2="68.12" y2="136.2"/>
</g>
</svg>
